<svg xmlns="http://www.w3.org/2000/svg" viewBox="0 0 512 499.36" role="img" class="navbar-nav-svg"><title>GitHub</title><path fill="currentColor" d="M256,0C114.63,0,0,114.61,0,256c0,113.1,73.34,209.05,175.08,242.91,12.8,2.34,17.47-5.56,17.47-12.34,0-6.08-.22-22.18-.34-43.54C121,458.51,106,408.72,106,408.72c-11.64-29.57-28.42-37.45-28.42-37.45-23.24-15.88,1.76-15.56,1.76-15.56,25.69,1.81,39.21,26.38,39.21,26.38,22.84,39.12,59.91,27.83,74.5,21.27,2.33-16.54,8.94-27.82,16.26-34.22-56.85-6.46-116.61-28.42-116.61-126.52,0-28,10-50.8,26.35-68.7-2.64-6.47-11.42-32.5,2.51-67.75,0,0,21.49-6.88,70.4,26.25a242.53,242.53,0,0,1,128.17,0c48.88-33.13,70.33-26.25,70.33-26.25,14,35.25,5.18,61.28,2.55,67.75,16.41,17.9,26.32,40.75,26.32,68.7,0,98.34-59.86,120-116.89,126.32,9.19,7.9,17.38,23.53,17.38,47.41,0,34.22-.31,61.83-.31,70.23,0,6.84,4.61,14.81,17.6,12.31C438.72,465,512,369.08,512,256,512,114.61,397.37,0,256,0Z"></path></svg>