<svg xmlns="http://www.w3.org/2000/svg" viewBox="0 0 512 512" role="img" class="navbar-nav-svg"><title>Select2 Bootstrap 5 theme</title><path fill="currentColor" d="M255.4,0L5.6,166.7l250.7,179.8l250.1-179.8L255.4,0z M396.5,180.8c-10.8,7.6-23.8,18.2-31.2,29.1 c-7.5,10.9-8.4,20.5,0.5,28.3l-10.1,7.7c-10.7-6.4-23.7-5.4-38.3,0.3c-14.6,5.8-28.5,15.6-38.6,23.8c-10.4,8.5-29.3,9.7-41.2,1.1 L115,182.9c-12-8.6-10.8-22.5,0.4-30.5c10.8-7.6,23.8-18.2,31.2-29.1c7.5-10.9,8.4-20.6-0.5-28.3l10.1-7.7 c10.7,6.4,23.8,5.5,38.4-0.3c14.6-5.8,28.5-15.6,38.6-23.8c10.4-8.5,29.3-9.7,41.2-1.1L397,150.3 C408.9,158.9,407.7,172.9,396.5,180.8z M304.5,138.9l-32.7-23.6c-2-1.4-5.1-1.4-6.9,0l-78,59.1c-1.9,1.4-1.8,3.7,0.2,5.1l32.9,23.7 c19.3,13.9,40,15.4,55,4.1h0c11.3-8.5,11.1-20.7,0.1-30.6l0.5-0.4c10.5,5.5,25.6,4.5,34.6-2.3C322.9,164.4,320.6,150.5,304.5,138.9z M261.2,196.4c-9.2,6.9-20.8,5.8-33.5-3.4l-19.5-14l27.9-21.1l0,0l18.6,13.4C268.2,180.9,270.4,189.4,261.2,196.4z M294.1,165.4 c-8.4,6.4-19.8,5.1-32.1-3.7l-15.8-11.4l25.3-19.2l18.8,13.5h0C300.5,151.9,302,159.4,294.1,165.4z M256.3,366.5L110.6,262 l-105,70.1L256.3,512l250.1-179.9l-105.2-69.8L256.3,366.5z"></path></svg>